<svg width="1547" height="172" viewBox="0 0 1547 172" fill="none" xmlns="http://www.w3.org/2000/svg">
<rect width="170" height="172" rx="49" fill="white"/>
<path d="M146.447 125.336C146.447 131.214 146.218 135.807 145.759 139.113C145.3 142.512 144.289 144.992 142.728 146.554C141.166 148.115 138.686 149.08 135.287 149.447C131.98 149.907 127.433 150.136 121.646 150.136C119.901 150.136 117.852 150.228 115.188 150.136C112.617 150.044 94.6881 150.411 89.2686 150.136H64.4678V86.0684H146.447V125.336ZM120.269 29.5781H149.203V45.4229H120.269V49.5566H146.447V62.6455H120.269V66.7793H151.958V81.9346H62.4014V75.7344L61.9473 74.2471C61.0277 71.265 60.0309 68.2058 58.957 65.0693V150.136H36.2227V81.2129C35.1902 89.2997 34.043 97.348 32.7783 105.357L19 101.913C20.286 93.3707 21.5266 84.7817 22.7207 76.1475C23.9148 67.5134 24.9711 58.8792 25.8896 50.2451L36.2227 51.7949V23.3779H58.957V49.4873L67.9121 46.8008C68.2714 47.7096 68.63 48.6284 68.9893 49.5566H94.0908V45.4229H63.7793V29.5781H94.0908V22H120.269V29.5781ZM104.424 98.0938C103.453 98.0938 102.53 98.3487 101.663 98.8506L89.1045 106.071L89.1035 106.072C88.2374 106.574 87.5559 107.242 87.0703 108.074C86.5837 108.908 86.3428 109.834 86.3428 110.838V125.279C86.3428 126.283 86.5838 127.209 87.0703 128.043C87.5559 128.875 88.2375 129.543 89.1035 130.045L89.1045 130.046L89.2686 130.14V137.651H84.8311V130.117H78.8076V138.151C78.8076 139.666 79.3532 140.976 80.4297 142.053C81.5063 143.129 82.8162 143.675 84.3311 143.675H92.3662V137.651H89.2686V130.14L101.663 137.267V137.266C102.531 137.768 103.453 138.023 104.424 138.023C105.394 138.023 106.316 137.767 107.184 137.266L107.185 137.267L119.743 130.046L119.744 130.045C120.61 129.543 121.292 128.875 121.777 128.043C122.264 127.209 122.505 126.284 122.505 125.279V110.838C122.505 109.834 122.264 108.908 121.777 108.074C121.353 107.346 120.778 106.744 120.061 106.269L119.744 106.072L119.743 106.071L107.185 98.8506H107.184C106.316 98.3491 105.394 98.0938 104.424 98.0938ZM124.017 130.117V137.651H116.482V143.675H124.517C126.032 143.675 127.341 143.129 128.418 142.053C129.495 140.976 130.04 139.666 130.04 138.151V130.117H124.017ZM101.412 119.789V130.191L92.3662 124.989V114.532L101.412 119.789ZM116.482 124.989L107.436 130.191V119.789L116.482 114.531V124.989ZM113.351 109.335L104.424 114.589L95.4961 109.335L104.424 104.193L113.351 109.335ZM84.3311 92.4424C82.8162 92.4425 81.5063 92.9878 80.4297 94.0645C79.353 95.1411 78.8077 96.4509 78.8076 97.9658V106.001H84.8311V98.4658H92.3662V92.4424H84.3311ZM116.482 92.4424V98.4658H124.017V106.001H130.04V97.9658C130.04 96.4509 129.495 95.1411 128.418 94.0645C127.341 92.988 126.031 92.4424 124.517 92.4424H116.482ZM73.8262 62.6455C74.3191 64.0434 74.7952 65.4217 75.2578 66.7793H94.0908V62.6455H73.8262Z" fill="#4373C1"/>
<path d="M301.096 134.744L290.856 111.832H239.912L229.544 134.744H219.432L261.928 40.024H268.84L311.336 134.744H301.096ZM244.008 102.488H286.632L265.384 55.128L244.008 102.488ZM390.678 134.744H378.902L353.558 95.96H332.31V134.744H322.582V40.024H359.958C373.782 40.024 388.63 48.856 388.63 67.928V68.056C388.63 84.824 377.11 93.656 365.078 95.576L390.678 134.744ZM332.31 49.496V86.488H359.574C370.198 86.488 378.006 78.936 378.006 68.056V67.928C378.006 57.048 370.198 49.496 359.574 49.496H332.31ZM499.335 56.792V68.312L464.775 92.504L472.583 109.144H462.727L457.351 97.496L435.335 112.984V125.528H495.623V134.744H425.991V108.248L453.383 89.048L451.207 84.44L427.783 77.656L435.079 54.872H414.983V45.912H438.023L440.583 37.976H450.439L447.879 45.912H485.383V54.872H445.063L439.431 71.896L457.735 77.272L460.807 83.8L499.335 56.792ZM557.831 44.504V55.128L536.583 45.144V34.52L557.831 44.504ZM557.831 71.896V82.52L532.999 71V60.376L557.831 71.896ZM640.519 80.088H605.575V99.544H630.535V139.608H571.143V99.544H595.847V80.088H561.543V70.616H595.847V50.136L571.143 54.744V45.144L628.999 34.392V43.992L605.575 48.344V70.616H640.519V80.088ZM620.807 130.52V108.632H580.615V130.52H620.807ZM532.103 141.656L554.887 92.76H565.639L542.855 141.656H532.103ZM673.031 34.776H761.735V141.656H751.751V103.896H719.623V140.12H709.895V103.896H676.871L673.543 141.656H663.687L673.031 34.776ZM751.751 64.728V44.76H719.623V64.728H751.751ZM709.895 44.76H681.991L680.327 64.728H709.895V44.76ZM677.767 94.424H709.895V74.2H679.431L677.767 94.424ZM719.623 94.424H751.751V74.2H719.623V94.424ZM872.199 92.632H882.439L870.919 135.768H803.335L815.623 50.776L808.455 46.808V35.928L826.375 45.656L814.599 126.168H863.111L872.199 92.632ZM960.519 132.056V122.712H1017.99V132.056H960.519ZM998.919 60.376H953.351L937.479 134.744H927.495L943.367 60.376H923.271V50.776H945.415L948.103 37.976H958.087L955.399 50.776H998.919V60.376ZM1004.42 98.264H993.031L1002.25 85.208L973.959 80.856V71.768L1018.12 78.68L1004.42 98.264ZM1151.88 94.808V104.28H1103.11V141.144H1074.31V132.056H1093.13V104.28H1045V94.808H1093.13V86.488H1099.01L1112.71 73.176H1062.02V63.704H1136.52L1104.78 94.808H1151.88ZM1081.61 45.144H1069.83L1061 32.472H1072.78L1081.61 45.144ZM1104.52 45.144H1092.87L1084.04 32.472H1095.69L1104.52 45.144ZM1057.54 56.664V74.968H1047.82V47.192H1111.94L1122.95 31.576H1134.86L1123.98 47.192H1149.06V74.968H1139.21V56.664H1057.54ZM1226.5 59.736H1238.54L1211.14 92.888V78.296L1226.5 59.736ZM1212.3 101.592H1201.67L1196.94 94.68V141.656H1187.59V100.312L1172.36 122.584V106.584L1187.59 84.312V62.68H1172.36V53.464H1187.59V32.216H1196.94V53.464H1209.35V62.68H1196.94V79.448L1212.3 101.592ZM1280.52 141.656H1268.49L1244.3 108.632L1221.38 141.656H1209.61L1237.64 101.336L1222.79 80.984H1234.06L1244.04 94.68L1255.18 78.552H1266.7L1250.95 101.08L1280.52 141.656ZM1252.36 59.736H1264.78L1280.39 78.168V92.76L1252.36 59.736ZM1280.14 46.04V55.256H1211.53V46.04H1240.97V31.576H1250.7V46.04H1280.14ZM1329.8 106.2H1339.78L1349.26 126.808H1339.27L1329.8 106.2ZM1300.36 136.536L1308.04 102.104H1317.51L1309.83 136.536H1300.36ZM1336.58 92.248H1328.52V141.656H1318.79V92.248H1300.36V83.16H1308.94L1316.62 69.848L1301.38 57.944L1316.23 32.216H1327.37L1313.8 55.64L1321.48 61.656L1333.26 41.176H1344.39L1320.07 83.16H1334.41L1331.59 71.384H1341.19L1347.46 97.368H1337.86L1336.58 92.248ZM1352.07 140.376V92.632H1403.4V140.376H1352.07ZM1361.8 101.848V131.16H1393.54V101.848H1361.8ZM1348.1 36.184H1405.58V90.072H1383.94V80.984H1395.98V45.784H1385.48L1358.98 91.608H1347.72L1374.22 45.784H1348.1V36.184ZM1495.56 141.656V69.336H1505.29V141.656H1495.56ZM1440.65 141.656L1459.21 70.872H1469.19L1450.63 141.656H1440.65ZM1482.5 31.96L1536.52 68.824V80.728L1482.38 43.736L1428.36 81.112V69.208L1482.5 31.96Z" fill="white"/>
</svg>
